<?xml version="1.0" encoding="UTF-8"?>
<svg xmlns="http://www.w3.org/2000/svg" viewBox="0 0 421.43 420">
  <g stroke="currentColor" stroke-width="2" fill="none" stroke-linecap="round">
    <line x1="140.71" y1="70" x2="140.71" y2="360"/>
    <line x1="140.71" y1="70" x2="230.71" y2="55"/>
    <line x1="230.71" y1="55" x2="300.71" y2="110"/>
    <line x1="300.71" y1="110" x2="270.71" y2="185"/>
    <line x1="270.71" y1="185" x2="180.71" y2="205"/>
    <line x1="180.71" y1="205" x2="140.71" y2="200"/>
    <line x1="140.71" y1="70" x2="300.71" y2="110"/>
    <line x1="230.71" y1="55" x2="270.71" y2="185"/>
    <line x1="140.71" y1="200" x2="300.71" y2="110"/>
    <line x1="140.71" y1="360" x2="180.71" y2="205"/>
    <line x1="140.71" y1="135" x2="230.71" y2="55"/>
    <line x1="140.71" y1="280" x2="95.71" y2="320"/>
  </g>
  <g stroke="#fff" stroke-width="1.5">
    <!-- Large nodes: agreement status colors -->
    <circle cx="140.71" cy="70" r="17" fill="#3B82F6"/>
    <circle cx="300.71" cy="110" r="17" fill="#EAB308"/>
    <circle cx="270.71" cy="185" r="17" fill="#39FF14"/>
    <circle cx="140.71" cy="360" r="17" fill="#10B981"/>
    <!-- Small nodes: archetype colors -->
    <circle cx="140.71" cy="135" r="8" fill="#10B981"/>
    <circle cx="140.71" cy="200" r="8" fill="#3B82F6"/>
    <circle cx="140.71" cy="280" r="8" fill="#EAB308"/>
    <circle cx="230.71" cy="55" r="8" fill="#A855F7"/>
    <circle cx="180.71" cy="205" r="8" fill="#EF4444"/>
    <circle cx="95.71" cy="320" r="8" fill="#3B82F6"/>
  </g>
</svg>
